<?xml version="1.0" encoding="utf-8"?>
<!-- Generator: Adobe Illustrator 15.0.0, SVG Export Plug-In . SVG Version: 6.00 Build 0)  -->
<!DOCTYPE svg PUBLIC "-//W3C//DTD SVG 1.1//EN" "http://www.w3.org/Graphics/SVG/1.1/DTD/svg11.dtd" [
	<!ENTITY ns_flows "http://ns.adobe.com/Flows/1.0/">
	<!ENTITY ns_extend "http://ns.adobe.com/Extensibility/1.0/">
	<!ENTITY ns_ai "http://ns.adobe.com/AdobeIllustrator/10.0/">
	<!ENTITY ns_graphs "http://ns.adobe.com/Graphs/1.0/">
]>
<svg version="1.1" id="Layer_1" xmlns:x="&ns_extend;" xmlns:i="&ns_ai;" xmlns:graph="&ns_graphs;"
	 xmlns="http://www.w3.org/2000/svg" xmlns:xlink="http://www.w3.org/1999/xlink" xmlns:a="http://ns.adobe.com/AdobeSVGViewerExtensions/3.0/"
	 x="0px" y="0px" width="184.657px" height="225.408px" viewBox="0 0 184.657 225.408" enable-background="new 0 0 184.657 225.408"
	 xml:space="preserve">
<path fill="#085A9A" d="M120.841,68.409c4-1,31.666,33.333-6.999,45c0,0-60.778,0-67.473,0s-3.527,4.583-3.527,4.583l77.999,78.416
	l-28.999,29c-64-78.499-103-75.999-89-156.999"/>
<path fill="#4FACE1" d="M103.123,141.408c0,0,29.973,30.574,36,34.5c16-11.75,78.5-72.75,23-143.5c-2-5-69-74-146,6
	c0,0,94.58-0.408,97,0c10.474,2.344,48.75,12.5,48.25,55.5C161.373,93.908,159.123,144.408,103.123,141.408z"/>
<path fill="#2F9DD8" d="M103.231,141.408c0,0,29.973,30.574,36,34.5c10.89-7.996,43.318-38.807,45.426-79.977
	c-19.426-27.023-21.426-21.523-30.578-31.236c4.571,7.48,7.544,17.027,7.402,29.213C161.481,93.908,159.231,144.408,103.231,141.408
	z"/>
</svg>
