<?xml version="1.0" encoding="utf-8"?>
<!-- Generator: Adobe Illustrator 15.0.0, SVG Export Plug-In . SVG Version: 6.00 Build 0)  -->
<!DOCTYPE svg PUBLIC "-//W3C//DTD SVG 1.1//EN" "http://www.w3.org/Graphics/SVG/1.1/DTD/svg11.dtd" [
	<!ENTITY ns_flows "http://ns.adobe.com/Flows/1.0/">
	<!ENTITY ns_extend "http://ns.adobe.com/Extensibility/1.0/">
	<!ENTITY ns_ai "http://ns.adobe.com/AdobeIllustrator/10.0/">
	<!ENTITY ns_graphs "http://ns.adobe.com/Graphs/1.0/">
]>
<svg version="1.1" xmlns:x="&ns_extend;" xmlns:i="&ns_ai;" xmlns:graph="&ns_graphs;"
	 xmlns="http://www.w3.org/2000/svg" xmlns:xlink="http://www.w3.org/1999/xlink" xmlns:a="http://ns.adobe.com/AdobeSVGViewerExtensions/3.0/"
	 x="0px" y="0px" width="327.616px" height="331.058px" viewBox="0 0 327.616 331.058" enable-background="new 0 0 327.616 331.058"
	 xml:space="preserve">
<g id="Layer_1" display="none">
	<g display="inline">
		<circle fill="#F2F2F2" stroke="#7B7B7B" stroke-width="2" stroke-miterlimit="10" cx="163.808" cy="166.086" r="160.972"/>
		<g>
			<path fill="#7D7D7D" d="M287.204,239.802c0,16.267,0,16.267-16.267,16.267h-54.901c-16.267,0-16.267-0.903-16.267-16.267V114.411
				c0-16.267,0-16.267,16.267-16.267h54.901c16.267,0,16.267,0,16.267,16.267V239.802z"/>
			<rect x="204.513" y="123.222" fill="#F6F6F6" width="75.913" height="105.736"/>
			<circle fill="#F6F6F6" cx="242.469" cy="242.174" r="7.117"/>
		</g>
		<g>
			<path fill="#7D7D7D" d="M117.971,221.483c0,14.165,0,14.165-14.164,14.165H56.006c-14.163,0-14.163-0.786-14.163-14.165V112.308
				c0-14.163,0-14.163,14.163-14.163h47.802c14.164,0,14.164,0,14.164,14.163V221.483z"/>
			<rect x="45.974" y="119.98" fill="#F6F6F6" width="66.096" height="92.062"/>
			<path fill="#F6F6F6" d="M85.219,223.548c0,3.425-2.775,6.198-6.197,6.198c-3.422,0-6.197-2.773-6.197-6.198
				c0-3.419,2.774-6.195,6.197-6.195C82.444,217.353,85.219,220.129,85.219,223.548z"/>
		</g>
		<polygon fill="#7D7D7D" points="196.888,85.943 220.949,69.507 217.561,88.485 		"/>
		<path fill="#7D7D7D" d="M94.202,86.96c0,0,0.508,11.184,9.659,3.558c0,0,8.472-36.77,50.156-39.99c0,0,28.806-3.219,51.851,29.823
			l7.015-4.906c0,0-13.624-33.559-56.833-34.745C156.051,40.701,111.655,37.312,94.202,86.96z"/>
		<rect x="52.688" y="123.222" fill="#575C5F" width="54.223" height="8.134"/>
		<rect x="51.501" y="189.66" fill="#575C5F" width="54.224" height="15.564"/>
		<rect x="55.398" y="135.991" fill="#ABADB2" width="47.615" height="2.142"/>
		<rect x="55.398" y="141.414" fill="#ABADB2" width="47.615" height="2.142"/>
		<rect x="55.398" y="146.836" fill="#ABADB2" width="47.615" height="2.142"/>
		<rect x="55.398" y="152.258" fill="#ABADB2" width="47.615" height="2.142"/>
		<rect x="60.482" y="158.806" fill="#ABADB2" width="36.262" height="25.417"/>
		<g>
			<circle fill="#FFFFFF" cx="114.808" cy="221.29" r="31.631"/>
			<polyline fill="#7D7D7D" points="105.319,215.19 111.419,221.29 119.552,205.023 128.364,209.768 114.13,239.59 97.185,222.307 
							"/>
		</g>
		<g>
			<path fill="#7D7D7D" d="M246.061,174.996c0,0,0.385-2.319,2.254-2.64h18.036c0,0,2.415,0.515,2.415,2.318v6.957
				c0,0-0.289,2.576-2.542,2.576h-17.909c0,0-1.738,0.323-2.254-2.383V174.996z"/>
			<path fill="#7D7D7D" d="M265.838,194.258c0,0-0.131,2.318-2.257,2.769h-43.417c0,0-1.607-0.386-2.09-2.448v-31.951
				c0,0-0.163-2.383,3.25-2.962h41.098c0,0,3.349-0.258,3.221,2.833l0.004,7.474h-16.881c0,0-4.379,0.9-4.637,4.379l-0.13,7.73
				c0,0,0.517,3.607,4.253,4.252c3.736,0.644,17.587,0.128,17.587,0.128"/>
			<path fill="#7D7D7D" d="M227.25,157.541h2.771l19.903-5.282l-1.16-2.448c0,0-0.386-1.546-3.8-0.967L227.25,157.541z"/>
			<path fill="#7D7D7D" d="M236.591,157.733l18.036-4.96c0,0,3.416-1.16,4.316,1.16l1.096,3.865L236.591,157.733z"/>
			<circle fill="#FFFFFF" cx="252.921" cy="178.443" r="2.094"/>
		</g>
	</g>
</g>
<g id="Layer_2" display="none">
	<g display="inline">
		<circle fill="#FFFFFF" stroke="#7E7E7E" stroke-width="10" stroke-miterlimit="10" cx="163.808" cy="167.402" r="154.542"/>
		<path fill="#7D7D7D" d="M109.899,118.111c0,0-11.116-46.882,45.432-58.481c0,0,31.416-7.733,52.682,21.266
			c0,0,8.7,10.633,8.216,37.215c0,0,14.016,11.6-3.383,33.349c0,0-13.292,43.499-46.399,46.934c0,0-32.624,3.814-52.198-44.517
			C114.25,153.877,96.85,133.095,109.899,118.111z"/>
		<path fill="#7D7D7D" d="M126.816,198.395l24.166,51.664l5.316-17.4l-5.316-14.5c0,0-2.9-4.833,5.316-7.733l14.983,0.483
			c0,0,5.8,1.691,3.866,6.766c0,0-1.933,10.15-5.316,14.017l6.452,18.366l23.03-51.664c0,0,3.625,11.548,42.532,19.281
			c0,0,20.058,2.417,24.891,14.017c0,0,6.283,7.733,7.25,36.732c0,0-35.766,53.407-108.505,54.374c0,0-63.798,7.25-113.339-53.648
			c0,0-0.241-18.85,3.383-28.033c0,0,1.934-16.674,19.575-21.507C75.101,219.609,115.458,217.296,126.816,198.395z"/>
	</g>
</g>
<g id="Layer_3">
	<g>
		<path fill="#7D7D7D" d="M38.751,273.122h251.13v-24.147c0,0-16.718-17.832-23.404-53.495c0,0-7.43-47.551-5.944-68.354
			c0,0,1.857-60.182-71.698-79.872l-0.743-22.29c0,0-0.743-14.015-23.033-19.317c0,0-15.974,1.114-23.404,19.317v22.661
			c0,0-67.983,11.516-72.441,82.843c0,0,1.114,28.233-4.83,60.182c0,0-2.229,27.862-25.633,57.953V273.122z"/>
		<path fill="#7D7D7D" d="M134.102,286.991h61.42v14.86c0,0-3.344,18.45-22.847,23.836h-16.532c0,0-18.449-5.944-22.041-24.147"/>
	</g>
</g>
</svg>
