<?xml version="1.0" encoding="utf-8"?>
<!-- Generator: Adobe Illustrator 15.0.0, SVG Export Plug-In . SVG Version: 6.00 Build 0)  -->
<!DOCTYPE svg PUBLIC "-//W3C//DTD SVG 1.1//EN" "http://www.w3.org/Graphics/SVG/1.1/DTD/svg11.dtd" [
	<!ENTITY ns_flows "http://ns.adobe.com/Flows/1.0/">
	<!ENTITY ns_extend "http://ns.adobe.com/Extensibility/1.0/">
	<!ENTITY ns_ai "http://ns.adobe.com/AdobeIllustrator/10.0/">
	<!ENTITY ns_graphs "http://ns.adobe.com/Graphs/1.0/">
]>
<svg version="1.1" id="Layer_1" xmlns:x="&ns_extend;" xmlns:i="&ns_ai;" xmlns:graph="&ns_graphs;"
	 xmlns="http://www.w3.org/2000/svg" xmlns:xlink="http://www.w3.org/1999/xlink" xmlns:a="http://ns.adobe.com/AdobeSVGViewerExtensions/3.0/"
	 x="0px" y="0px" width="30px" height="30px" viewBox="0 0 288 288" enable-background="new 0 0 288 288" xml:space="preserve">
<g>
	<path fill="#314A9F" d="M287.111,256.911c0,16.196-13.132,29.327-29.327,29.327H31.898c-16.196,0-29.328-13.131-29.328-29.327
		V31.025c0-16.199,13.131-29.329,29.328-29.329h225.886c16.195,0,29.327,13.13,29.327,29.329V256.911z"/>
	<path fill="#FFFFFF" d="M242.967,40.302H204.68c0,0-36.053,3.716-38.282,37.913v32.709h-21.557v38.288h21.557v105.186h43.115
		V149.212h28.994l4.46-37.545h-32.712V87.134c0,0,2.975-8.919,10.411-8.919l22.301,0.742"/>
</g>
</svg>
