<?xml version="1.0" encoding="utf-8"?>
<!-- Generator: Adobe Illustrator 15.0.0, SVG Export Plug-In . SVG Version: 6.00 Build 0)  -->
<!DOCTYPE svg PUBLIC "-//W3C//DTD SVG 1.1//EN" "http://www.w3.org/Graphics/SVG/1.1/DTD/svg11.dtd" [
	<!ENTITY ns_flows "http://ns.adobe.com/Flows/1.0/">
	<!ENTITY ns_extend "http://ns.adobe.com/Extensibility/1.0/">
	<!ENTITY ns_ai "http://ns.adobe.com/AdobeIllustrator/10.0/">
	<!ENTITY ns_graphs "http://ns.adobe.com/Graphs/1.0/">
]>
<svg version="1.1" id="Layer_1" xmlns:x="&ns_extend;" xmlns:i="&ns_ai;" xmlns:graph="&ns_graphs;"
	 xmlns="http://www.w3.org/2000/svg" xmlns:xlink="http://www.w3.org/1999/xlink" xmlns:a="http://ns.adobe.com/AdobeSVGViewerExtensions/3.0/"
	 x="0px" y="0px" width="432px" height="288px" viewBox="0 0 432 288" enable-background="new 0 0 432 288" xml:space="preserve">
<circle fill="#F4F4F6" cx="211.716" cy="144.865" r="125.714"/>
<path fill="#88CCE7" d="M303.979,133.905c0.142,3.418-0.481,7.461-8.415,7.461H133.783c-9.181,0.001-8.528-7.397-8.528-7.397
	l0.106-23.623c0,0-1.379-7.963,8.422-7.834l161.935-0.066c9.489,0,8.277,4.556,8.246,9.61L303.979,133.905z"/>
<path fill="#88CCE7" d="M291.031,223.882c0.138,3.419-0.48,7.463-8.419,7.463H146.956c-9.181,0-8.528-7.398-8.528-7.398
	l0.106-94.526c0,0-1.378-7.962,8.422-7.835l135.809-0.065c9.49,0,8.28,4.555,8.252,9.613L291.031,223.882z"/>
<rect x="138.247" y="217.756" fill="#0D72AD" width="153.002" height="5.823"/>
<rect x="138.138" y="205.626" fill="#0D72AD" width="153.003" height="5.823"/>
<rect x="138.138" y="192.099" fill="#0D72AD" width="153.003" height="5.824"/>
<rect x="138.247" y="179.503" fill="#0D72AD" width="153.002" height="5.823"/>
<rect x="138.247" y="166.442" fill="#0D72AD" width="153.002" height="5.823"/>
<rect x="138.247" y="154.782" fill="#0D72AD" width="153.002" height="5.823"/>
<rect x="138.138" y="141.367" fill="#0D72AD" width="153.003" height="5.824"/>
<rect x="201.22" y="102.447" opacity="0.75" fill="#0D72AD" width="25.656" height="128.898"/>
<circle fill="#88CCE7" cx="214.049" cy="102.447" r="12.595"/>
<path fill="#88CCE7" d="M213.684,93.32c0,0,26.589-28.455,41.049-31.72c0,0,20.992-6.065,21.924,15.859
	c0,0,2.332,16.327-22.389,21.924c0,0-23.193,0.265-34.855-5.8c0,0,1.138-1.255,3.535-1.226c11.359,0.138,47.238,2.435,45.313-14.898
	c0,0-4.663-13.994-16.793-6.064l-26.122,20.991l-11.662,9.797l-13.993-2.799c0,0-59.578,1.866-66.815-16.793
	c0,0-14.221-41.983,31.754-28.455c0,0,32.729,9.33,46.722,37.318C225.346,119.442,213.684,93.32,213.684,93.32z"/>
<path fill="#FFFFFF" d="M203.427,93.15c0,0-13.401-22.222-27.347-27.056c-9.379-4.029-20.679-6.36-25.811,2.969
	c0,0-3.111,9.161,2.487,15.224C152.757,84.287,166.868,95.95,203.427,93.15z"/>
<path fill="#CCCCCD" d="M367.796,231.144c0,0,14.755,0,15.937-18.489h2.558c0,0,0.59,15.492,16.724,18.489v1.968
	c0,0-15.888,3.149-16.873,16.925h-2.261c0,0-0.936-14.562-16.084-16.729V231.144z"/>
<path fill="#CCCCCD" d="M234.106,21.87c0,0,8.502,0,9.185-10.654h1.472c0,0,0.339,8.925,9.635,10.654v1.134
	c0,0-9.154,1.813-9.723,9.75h-1.301c0,0-0.538-8.39-9.268-9.638V21.87z"/>
<path fill="#CCCCCD" d="M75.855,132.174c0,0,8.502,0,9.184-10.654h1.473c0,0,0.338,8.924,9.636,10.654v1.133
	c0,0-9.155,1.814-9.723,9.751h-1.302c0,0-0.539-8.39-9.268-9.638V132.174z"/>
<path fill="#CCCCCD" d="M331.715,211.387c0,0,4.789,0,5.172-5.686h0.833c0,0,0.188,4.766,5.425,5.686v0.605
	c0,0-5.156,0.97-5.477,5.208h-0.731c0,0-0.303-4.479-5.222-5.146V211.387z"/>
<path fill="#CCCCCD" d="M43.32,185.246c0,0,5.899,0,6.374-7.393h1.02c0,0,0.235,6.195,6.687,7.393v0.789
	c0,0-6.352,1.257-6.748,6.768h-0.901c0,0-0.376-5.823-6.432-6.688V185.246z"/>
<path fill="#88CCE7" d="M111.162,200.984c0,0,5.901,0,6.374-7.396h1.02c0,0,0.235,6.195,6.688,7.396v0.786
	c0,0-6.352,1.259-6.748,6.767h-0.902c0,0-0.375-5.823-6.432-6.687V200.984z"/>
<path opacity="0.75" fill="#0D72AD" d="M176.375,41.332c0,0,5.327,0,5.755-6.674h0.921c0,0,0.213,5.592,6.037,6.674v0.711
	c0,0-5.734,1.135-6.092,6.108h-0.812c0,0-0.339-5.257-5.808-6.038V41.332z"/>
<path fill="#88CCE7" d="M57.401,84.75c0,0,5.326,0,5.755-6.674h0.919c0,0,0.213,5.592,6.037,6.674v0.711
	c0,0-5.734,1.135-6.091,6.108h-0.813c0,0-0.339-5.257-5.807-6.037V84.75z"/>
<path fill="#88CCE7" d="M403.014,185.26c0,0,5.329,0,5.756-6.677h0.92c0,0,0.213,5.591,6.036,6.677v0.706
	c0,0-5.735,1.138-6.093,6.107h-0.81c0,0-0.344-5.255-5.81-6.035V185.26z"/>
<path fill="#88CCE7" d="M240.317,242.482c0,0,5.898,0,6.374-7.396h1.02c0,0,0.237,6.195,6.687,7.396v0.786
	c0,0-6.351,1.257-6.749,6.768h-0.899c0,0-0.375-5.824-6.432-6.688V242.482z"/>
<path fill="#88CCE7" d="M338.633,32.692c0,0,4.378,0,4.727-5.484h0.758c0,0,0.176,4.596,4.96,5.484v0.586
	c0,0-4.712,0.932-5.007,5.019h-0.667c0,0-0.276-4.319-4.771-4.961V32.692z"/>
<g>
	<path fill="#88CCE7" d="M15.142,21.788c0,0,14.756,0,15.937-18.496h2.559c0,0,0.59,15.493,16.723,18.496v1.968
		c0,0-15.889,3.147-16.873,16.919h-2.259c0,0-0.938-14.56-16.087-16.723V21.788z"/>
	<path fill="#FFFFFF" d="M25.71,21.904c0,0,5.901,0,6.374-7.395h1.02c0,0,0.235,6.195,6.687,7.395v0.788
		c0,0-6.352,1.256-6.747,6.767h-0.902c0,0-0.375-5.823-6.432-6.687V21.904z"/>
</g>
<g>
	<path fill="#88CCE7" d="M108.167,271.829c0,0,5.898,0,6.37-7.392h1.023c0,0,0.235,6.192,6.684,7.392v0.788
		c0,0-6.351,1.257-6.744,6.762h-0.903c0,0-0.375-5.819-6.43-6.684V271.829z"/>
	<path fill="#FFFFFF" d="M112.392,271.877c0,0,2.358,0,2.547-2.956h0.408c0,0,0.094,2.476,2.672,2.956v0.314
		c0,0-2.539,0.502-2.697,2.705h-0.36c0,0-0.15-2.328-2.571-2.673V271.877z"/>
</g>
<g>
	<path fill="#88CCE7" d="M310.06,166.353c0,0,6.729,0,7.267-8.433h1.167c0,0,0.269,7.063,7.625,8.433v0.897
		c0,0-7.245,1.435-7.693,7.714h-1.03c0,0-0.428-6.639-7.335-7.625V166.353z"/>
	<path fill="#FFFFFF" d="M314.879,166.405c0,0,2.69,0,2.906-3.371h0.465c0,0,0.107,2.824,3.049,3.371v0.359
		c0,0-2.896,0.573-3.076,3.085h-0.411c0,0-0.171-2.654-2.933-3.049V166.405z"/>
</g>
<g>
	<path fill="#88CCE7" d="M323.484,62.99c0,0,5.395,0,5.826-7.832h0.931c0,0,0.218,6.562,6.113,7.832v0.834
		c0,0-5.806,1.333-6.17,7.165h-0.819c0,0-0.35-6.166-5.881-7.081V62.99z"/>
	<path fill="#FFFFFF" d="M327.351,63.039c0,0,2.151,0,2.33-3.129h0.369c0,0,0.08,2.622,2.438,3.129v0.333
		c0,0-2.316,0.532-2.464,2.864h-0.326c0,0-0.135-2.463-2.348-2.829V63.039z"/>
</g>
</svg>
