<?xml version="1.0" encoding="utf-8"?>
<!-- Generator: Adobe Illustrator 15.0.0, SVG Export Plug-In . SVG Version: 6.00 Build 0)  -->
<!DOCTYPE svg PUBLIC "-//W3C//DTD SVG 1.1//EN" "http://www.w3.org/Graphics/SVG/1.1/DTD/svg11.dtd" [
	<!ENTITY ns_flows "http://ns.adobe.com/Flows/1.0/">
	<!ENTITY ns_extend "http://ns.adobe.com/Extensibility/1.0/">
	<!ENTITY ns_ai "http://ns.adobe.com/AdobeIllustrator/10.0/">
	<!ENTITY ns_graphs "http://ns.adobe.com/Graphs/1.0/">
]>
<svg version="1.1" id="Layer_1" xmlns:x="&ns_extend;" xmlns:i="&ns_ai;" xmlns:graph="&ns_graphs;"
	 xmlns="http://www.w3.org/2000/svg" xmlns:xlink="http://www.w3.org/1999/xlink" xmlns:a="http://ns.adobe.com/AdobeSVGViewerExtensions/3.0/"
	 x="0px" y="0px" width="30px" height="30px" viewBox="0 0 288 288" enable-background="new 0 0 288 288" xml:space="preserve">
<g>
	<path fill="#EDEDED" d="M286.334,257.06c0,16.141-13.087,29.228-29.228,29.228H31.987c-16.141,0-29.228-13.087-29.228-29.228
		V31.941c0-16.143,13.087-29.229,29.228-29.229h225.12c16.141,0,29.228,13.086,29.228,29.229V257.06z"/>
	<path fill="#D42E2A" d="M273.376,50.707v201.372c0,0-0.999,12.839-11.37,12.164l-21.364,0.026V67.601L273.376,50.707z"/>
	<path fill="#EF4337" d="M15.717,50.707v201.372c0,0,1.062,12.839,12.139,12.164l22.803,0.026V67.601L15.717,50.707z"/>
	<polygon fill="#D42E2A" points="15.857,54.767 15.857,83.352 50.101,87.204 40.431,58.821 	"/>
	<path fill="#EF4337" d="M35.83,25.765l108.787,97.308l107.952-97.308c0,0,15.627-4.731,20.808,11.487v17.569l-128.76,116.904
		L15.857,57.525V37.929C15.857,37.929,19.795,20.358,35.83,25.765z"/>
</g>
</svg>
