<?xml version="1.0" encoding="utf-8"?>
<!-- Generator: Adobe Illustrator 15.0.0, SVG Export Plug-In . SVG Version: 6.00 Build 0)  -->
<!DOCTYPE svg PUBLIC "-//W3C//DTD SVG 1.1//EN" "http://www.w3.org/Graphics/SVG/1.1/DTD/svg11.dtd" [
	<!ENTITY ns_flows "http://ns.adobe.com/Flows/1.0/">
	<!ENTITY ns_extend "http://ns.adobe.com/Extensibility/1.0/">
	<!ENTITY ns_ai "http://ns.adobe.com/AdobeIllustrator/10.0/">
	<!ENTITY ns_graphs "http://ns.adobe.com/Graphs/1.0/">
]>
<svg version="1.1" xmlns:x="&ns_extend;" xmlns:i="&ns_ai;" xmlns:graph="&ns_graphs;"
	 xmlns="http://www.w3.org/2000/svg" xmlns:xlink="http://www.w3.org/1999/xlink" xmlns:a="http://ns.adobe.com/AdobeSVGViewerExtensions/3.0/"
	 x="0px" y="0px" width="327.616px" height="331.058px" viewBox="0 0 327.616 331.058" enable-background="new 0 0 327.616 331.058"
	 xml:space="preserve">
<g id="Layer_1" display="none">
	<g display="inline">
		<circle fill="#F2F2F2" stroke="#7B7B7B" stroke-width="2" stroke-miterlimit="10" cx="163.808" cy="166.086" r="160.972"/>
		<g>
			<path fill="#7D7D7D" d="M287.204,239.802c0,16.267,0,16.267-16.267,16.267h-54.901c-16.267,0-16.267-0.903-16.267-16.267V114.411
				c0-16.267,0-16.267,16.267-16.267h54.901c16.267,0,16.267,0,16.267,16.267V239.802z"/>
			<rect x="204.513" y="123.222" fill="#F6F6F6" width="75.913" height="105.736"/>
			<circle fill="#F6F6F6" cx="242.469" cy="242.174" r="7.117"/>
		</g>
		<g>
			<path fill="#7D7D7D" d="M117.971,221.483c0,14.165,0,14.165-14.164,14.165H56.006c-14.163,0-14.163-0.786-14.163-14.165V112.308
				c0-14.163,0-14.163,14.163-14.163h47.802c14.164,0,14.164,0,14.164,14.163V221.483z"/>
			<rect x="45.974" y="119.98" fill="#F6F6F6" width="66.096" height="92.062"/>
			<path fill="#F6F6F6" d="M85.219,223.548c0,3.425-2.775,6.198-6.197,6.198c-3.422,0-6.197-2.773-6.197-6.198
				c0-3.419,2.774-6.195,6.197-6.195C82.444,217.353,85.219,220.129,85.219,223.548z"/>
		</g>
		<polygon fill="#7D7D7D" points="196.888,85.943 220.949,69.507 217.561,88.485 		"/>
		<path fill="#7D7D7D" d="M94.202,86.96c0,0,0.508,11.184,9.659,3.558c0,0,8.472-36.77,50.156-39.99c0,0,28.806-3.219,51.851,29.823
			l7.015-4.906c0,0-13.624-33.559-56.833-34.745C156.051,40.701,111.655,37.312,94.202,86.96z"/>
		<rect x="52.688" y="123.222" fill="#575C5F" width="54.223" height="8.134"/>
		<rect x="51.501" y="189.66" fill="#575C5F" width="54.224" height="15.564"/>
		<rect x="55.398" y="135.991" fill="#ABADB2" width="47.615" height="2.142"/>
		<rect x="55.398" y="141.414" fill="#ABADB2" width="47.615" height="2.142"/>
		<rect x="55.398" y="146.836" fill="#ABADB2" width="47.615" height="2.142"/>
		<rect x="55.398" y="152.258" fill="#ABADB2" width="47.615" height="2.142"/>
		<rect x="60.482" y="158.806" fill="#ABADB2" width="36.262" height="25.417"/>
		<g>
			<circle fill="#FFFFFF" cx="114.808" cy="221.29" r="31.631"/>
			<polyline fill="#7D7D7D" points="105.319,215.19 111.419,221.29 119.552,205.023 128.364,209.768 114.13,239.59 97.185,222.307 
							"/>
		</g>
		<g>
			<path fill="#7D7D7D" d="M246.061,174.996c0,0,0.385-2.319,2.254-2.64h18.036c0,0,2.415,0.515,2.415,2.318v6.957
				c0,0-0.289,2.576-2.542,2.576h-17.909c0,0-1.738,0.323-2.254-2.383V174.996z"/>
			<path fill="#7D7D7D" d="M265.838,194.258c0,0-0.131,2.318-2.257,2.769h-43.417c0,0-1.607-0.386-2.09-2.448v-31.951
				c0,0-0.163-2.383,3.25-2.962h41.098c0,0,3.349-0.258,3.221,2.833l0.004,7.474h-16.881c0,0-4.379,0.9-4.637,4.379l-0.13,7.73
				c0,0,0.517,3.607,4.253,4.252c3.736,0.644,17.587,0.128,17.587,0.128"/>
			<path fill="#7D7D7D" d="M227.25,157.541h2.771l19.903-5.282l-1.16-2.448c0,0-0.386-1.546-3.8-0.967L227.25,157.541z"/>
			<path fill="#7D7D7D" d="M236.591,157.733l18.036-4.96c0,0,3.416-1.16,4.316,1.16l1.096,3.865L236.591,157.733z"/>
			<circle fill="#FFFFFF" cx="252.921" cy="178.443" r="2.094"/>
		</g>
	</g>
</g>
<g id="Layer_2" display="none">
	<g display="inline">
		<circle fill="#FFFFFF" stroke="#7E7E7E" stroke-width="10" stroke-miterlimit="10" cx="163.808" cy="167.402" r="154.542"/>
		<path fill="#7D7D7D" d="M109.899,118.111c0,0-11.116-46.882,45.432-58.481c0,0,31.416-7.733,52.682,21.266
			c0,0,8.7,10.633,8.216,37.215c0,0,14.016,11.6-3.383,33.349c0,0-13.292,43.499-46.399,46.934c0,0-32.624,3.814-52.198-44.517
			C114.25,153.877,96.85,133.095,109.899,118.111z"/>
		<path fill="#7D7D7D" d="M126.816,198.395l24.166,51.664l5.316-17.4l-5.316-14.5c0,0-2.9-4.833,5.316-7.733l14.983,0.483
			c0,0,5.8,1.691,3.866,6.766c0,0-1.933,10.15-5.316,14.017l6.452,18.366l23.03-51.664c0,0,3.625,11.548,42.532,19.281
			c0,0,20.058,2.417,24.891,14.017c0,0,6.283,7.733,7.25,36.732c0,0-35.766,53.407-108.505,54.374c0,0-63.798,7.25-113.339-53.648
			c0,0-0.241-18.85,3.383-28.033c0,0,1.934-16.674,19.575-21.507C75.101,219.609,115.458,217.296,126.816,198.395z"/>
	</g>
</g>
<g id="Layer_3" display="none">
	<g display="inline">
		<path fill="#7D7D7D" d="M38.751,273.122h251.13v-24.147c0,0-16.718-17.832-23.404-53.495c0,0-7.43-47.551-5.944-68.354
			c0,0,1.857-60.182-71.698-79.872l-0.743-22.29c0,0-0.743-14.015-23.033-19.317c0,0-15.974,1.114-23.404,19.317v22.661
			c0,0-67.983,11.516-72.441,82.843c0,0,1.114,28.233-4.83,60.182c0,0-2.229,27.862-25.633,57.953V273.122z"/>
		<path fill="#7D7D7D" d="M134.102,286.991h61.42v14.86c0,0-3.344,18.45-22.847,23.836h-16.532c0,0-18.449-5.944-22.041-24.147"/>
	</g>
</g>
<g id="Layer_4" display="none">
	<g display="inline">
		<path fill="#7D7D7D" d="M44.445,147.825H16.823c0,0-7.506,1.201-8.407-8.707L13.22,22.327c0,0,0.901-12.31,15.012-14.711
			l221.874,0.91c0,0,14.411,0.591,20.116,12.901l25.22,41.732c0,0-0.3,1.501,3.002,2.702c0,0,21.016,9.007,20.716,17.414
			l0.003,57.345c0,0,0.897,7.297-6.309,7.252"/>
		<g>
			<circle fill="#7D7D7D" cx="71.343" cy="152.352" r="28.072"/>
			<circle fill="#F7F8F8" cx="71.343" cy="152.352" r="17.782"/>
			<circle fill="#7D7D7D" cx="71.343" cy="152.352" r="11.234"/>
		</g>
		<g>
			<circle fill="#7D7D7D" cx="255.387" cy="153.553" r="28.072"/>
			<circle fill="#F7F8F8" cx="255.387" cy="153.553" r="17.782"/>
			<circle fill="#7D7D7D" cx="255.387" cy="153.553" r="11.234"/>
		</g>
		<polyline fill="#FFFFFF" points="106.32,21.299 186.783,21.299 186.783,66.935 106.32,66.935 		"/>
		<path fill="#FFFFFF" d="M91.108,21.299v45.636H34.264V28.906c0,0-0.8-7.607,6.005-7.607"/>
		<path fill="#FFFFFF" d="M205.598,21.299c0,0-6.666-2.002-6.936,4.804v35.229c0,0,0.53,6.403,5.333,5.604h74.059
			c0,0,8.206-2.002,3.903-6.004l-26.571-39.631"/>
	</g>
</g>
<g id="Layer_5" display="none">
	<g display="inline">
		<path fill="#7D7D7D" d="M179.494,173.458c0,0,2.293-13.768,13.385-15.681H299.97c0,0,14.333,3.06,14.333,13.769v41.307
			c0,0-1.713,15.298-15.099,15.298H192.879c0,0-10.325,1.913-13.385-14.151V173.458z"/>
		<path fill="#7D7D7D" d="M296.932,287.816c0,0-0.787,13.77-13.408,16.447H25.742c0,0-9.547-2.295-12.422-14.534V100.025
			c0,0-0.963-14.149,19.308-17.593H276.64c0,0,19.889-1.529,19.124,16.829l0.021,44.366H195.557c0,0-26.007,5.354-27.538,26.008
			l-0.765,45.895c0,0,3.06,21.417,25.243,25.243c22.183,3.826,104.435,0.765,104.435,0.765"/>
		<path fill="#7D7D7D" d="M67.813,69.811h16.445l118.182-31.363l-6.884-14.533c0,0-2.295-9.179-22.565-5.737L67.813,69.811z"/>
		<path fill="#7D7D7D" d="M123.271,70.958l107.091-29.449c0,0,20.271-6.885,25.625,6.884l6.502,22.948L123.271,70.958z"/>
		<circle fill="#FFFFFF" cx="220.226" cy="193.921" r="12.43"/>
	</g>
</g>
<g id="Layer_6">
	<g>
		<path fill="#7D7D7D" d="M164.573,81.264L51.656,185.068v111.13c0,0-0.407,8.956,8.956,9.771h77.751l-0.803-83.417l51.687,0.782
			l1.628,82.636h76.529c0,0,10.584-2.035,10.584-12.62V187.918L164.573,81.264z"/>
		<polygon fill="#7D7D7D" points="23.975,189.954 164.573,62.132 304.04,189.954 325.616,165.73 277.988,122.379 277.988,25.088 
			226.29,25.088 227.917,74.345 174.796,25.088 153.831,25.088 3.214,165.73 		"/>
	</g>
</g>
</svg>
