<?xml version="1.0" encoding="utf-8"?>
<!-- Generator: Adobe Illustrator 15.0.0, SVG Export Plug-In . SVG Version: 6.00 Build 0)  -->
<!DOCTYPE svg PUBLIC "-//W3C//DTD SVG 1.1//EN" "http://www.w3.org/Graphics/SVG/1.1/DTD/svg11.dtd">
<svg version="1.1" id="Layer_1" xmlns="http://www.w3.org/2000/svg" xmlns:xlink="http://www.w3.org/1999/xlink" x="0px" y="0px"
	 width="2732px" height="2732px" viewBox="0 0 2732 2732" enable-background="new 0 0 2732 2732" xml:space="preserve">
<rect fill="#EAEAEA" width="2732" height="2732"/>
<g opacity="0.35">
	<circle fill="#FFFFFF" cx="1307.802" cy="2310.237" r="932.451"/>
	<ellipse fill="#B1B2B0" cx="1321.316" cy="2399.459" rx="108.108" ry="11.803"/>
	<path fill="#085A9A" d="M1394.484,1992.887c10.494-2.621,83.064,87.437-18.358,118.037c0,0-159.425,0-176.984,0
		c-17.559,0-9.252,12.021-9.252,12.021l204.595,205.692l-76.065,76.066c-167.876-205.908-270.175-199.349-233.452-411.817"/>
	<path fill="#030303" stroke="#010101" stroke-miterlimit="10" d="M1854.694,2088.188c0,0,34.104,20.985,43.722,21.86
		c0,0,50.707,22.734,48.963,56.833c0,0,34.975-0.875,57.705,17.485c0,0,29.29,27.979,25.354,62.955
		c-3.932,34.977-16.608,24.046-27.543,54.647c0,0-7.428,12.681-2.182,38.035c0,0-10.057-4.811-11.803-14.864
		c0,0-6.122,16.173,3.934,36.283c0,0-44.157-26.228-8.31-97.054c0,0,8.31-20.546-4.371-14.427c0,0-12.681,4.809-15.737,19.675
		c0,0-5.244-17.489,9.616-34.977c0,0,11.803-17.923-2.625-31.477c0,0-6.991-14.426-20.107-13.551c0,0,2.551,31.476-8.561,47.215
		c0,0-8.053,16.175-12.86,21.422c0,0-0.875,22.292,4.372,33.663c0,0,3.423,11.806,8.488,17.926c0,0,6.302,5.682,0,17.922
		c0,0-15.481,22.732-22.038,31.914c0,0-14.868,24.479-16.179,40.657l-3.936,4.371h-32.348l0.869-6.12c0,0,0.879-9.619,20.114-19.237
		c0,0,21.86-38.467,24.919-42.842c3.059-4.373,8.741-16.173-0.439-31.039c0,0-13.115-10.492-15.736-13.991
		c0,0-6.558-7.867-8.743,2.624c0,0-2.186,9.182-3.064,14.426c0,0-3.492,4.81-7.427,6.997c0,0-13.555,9.617-27.544,27.542
		c0,0-12.243,21.422-13.554,24.918v18.362l-3.936,2.186l-32.789,0.438v-6.557c0,0,12.243-14.429,20.985-23.609
		c0,0,13.114-16.175,15.739-24.479c0,0,12.679-24.922,12.679-26.23c0,0,4.371-11.805,0-26.231c0,0-11.804-16.175-12.679-42.406
		l-1.313-28.416c0,0,0.441-10.933-10.927-9.183c0,0-55.085-13.549-90.935-57.706c0,0-13.554-6.994-30.604,1.313
		c0,0-8.742,2.621-11.803,8.741c0,0-1.748,10.932,0,15.304l6.121,27.542l3.496,5.246l1.311,6.56l2.623,4.369l1.313,1.75
		l17.921-1.311l12.242,13.552l2.621,5.684v7.868c0,0-1.746,4.373-3.496,5.684c-1.75,1.313-5.244,3.936-7.432,2.623
		c-2.186-1.311-9.181-4.371-9.181-4.371l-6.994-6.121c0,0-24.046-16.612-24.483-19.674c-0.436-3.061-18.363-55.956-18.363-59.017
		c0-3.063-3.057-10.931,2.626-19.237c0,0,30.167-30.602,31.913-40.219c0,0,7.431-9.618-5.686-7.431c0,0-37.592-3.064-57.267-18.8
		c0,0-13.991-3.938-16.614,2.619c0,0-5.682,13.118-3.057,31.916l-0.693,6.557l3.75,1.751v12.678l2.621,1.748
		c0,0,10.275,4.808,12.241,6.558c1.966,1.748,0,24.481,0,24.481s-5.09,2.528-6.118,1.314c-5.468-1.968-26.671-31.478-26.671-31.478
		v-19.672l2.188-49.402c0,0,7.433-13.77,13.993-15.739c5.86,0.956,13.55,8.746,21.854,9.182c0,0,26.67,7.433,37.598,1.748
		c0,0,10.493-3.061,17.925-16.614c0,0,2.182-16.174,20.546-25.354h3.065c0,0,3.059-45.466,59.888-84.813
		c0,0,2.407-3.934,1.752-6.992c-0.659-3.061-4.809,0-4.809,0s-6.56,8.74-20.11,6.992c0,0-17.707-5.244-25.795-0.875
		c-0.877,3.063-10.926,9.62-10.926,9.62s-10.715,0.875-14.427-1.748c-3.72-2.624-7.435-11.368-7.435-11.368
		s-2.188-10.929,0.875-16.175c3.062-5.246,25.357-15.304,30.164-21.423c0,0,12.681-5.682,17.489-10.929
		c0,0,9.181-13.552,17.485-17.052l3.061-2.621l0.439-3.496c0,0-1.313-3.498-7.436,0c0,0,3.5-6.999,12.242-3.936
		c0,0,4.372-2.186-1.311-7.431c0,0,22.732-3.5,38.472,4.808c0,0,10.492-1.749,19.233-7.87c0,0-4.374,11.368-1.313,13.554
		c0,0,12.346,12.276,15.738,14.427c23.172,14.426,21.861,40.658,44.593,59.456c-5.242,3.061-28.852-8.307-26.228-1.748
		c5.682-3.063,17.92,29.727,33.225,44.152c-6.993,3.499-19.24-6.992-19.24-6.992s-1.311,7.649,0.439,11.804
		c0.776,2.415,32.354,48.527,5.687,71.697c1.311-23.172-6.126-29.729-6.126-29.729s-8.988-1.354-9.178,3.498
		c-0.19,4.851-1.748,44.593-1.748,44.593s0.438,7.865-13.116,14.864C1855.569,2080.759,1851.744,2086.402,1854.694,2088.188z"/>
	<path fill="#030303" stroke="#010101" stroke-miterlimit="10" d="M785.212,2088.188c0,0-34.102,20.985-43.718,21.86
		c0,0-50.712,22.734-48.963,56.833c0,0-34.976-0.875-57.708,17.485c0,0-29.291,27.979-25.357,62.955
		c3.936,34.977,16.613,24.046,27.543,54.647c0,0,7.432,12.681,2.185,38.035c0,0,10.054-4.811,11.804-14.864
		c0,0,6.121,16.173-3.936,36.283c0,0,44.158-26.228,8.308-97.054c0,0-8.308-20.546,4.371-14.427c0,0,12.679,4.809,15.739,19.675
		c0,0,5.245-17.489-9.619-34.977c0,0-11.803-17.923,2.624-31.477c0,0,6.995-14.426,20.109-13.551c0,0-2.548,31.476,8.562,47.215
		c0,0,8.054,16.175,12.862,21.422c0,0,0.873,22.292-4.374,33.663c0,0-3.424,11.806-8.488,17.926c0,0-6.303,5.682,0,17.922
		c0,0,15.482,22.732,22.04,31.914c0,0,14.865,24.479,16.177,40.657l3.934,4.371h32.352l-0.874-6.12c0,0-0.876-9.619-20.111-19.237
		c0,0-21.859-38.467-24.919-42.842c-3.059-4.373-8.742-16.173,0.438-31.039c0,0,13.116-10.492,15.738-13.991
		c0,0,6.556-7.867,8.743,2.624c0,0,2.188,9.182,3.061,14.426c0,0,3.496,4.81,7.431,6.997c0,0,13.553,9.617,27.543,27.542
		c0,0,12.242,21.422,13.553,24.918v18.362l3.935,2.186l32.789,0.438v-6.557c0,0-12.24-14.429-20.984-23.609
		c0,0-13.116-16.175-15.737-24.479c0,0-12.679-24.922-12.679-26.23c0,0-4.372-11.805,0-26.231c0,0,11.805-16.175,12.679-42.406
		l1.311-28.416c0,0-0.437-10.933,10.929-9.183c0,0,55.085-13.549,90.933-57.706c0,0,13.553-6.994,30.602,1.313
		c0,0,8.743,2.621,11.805,8.741c0,0,1.747,10.932,0,15.304l-6.122,27.542l-3.498,5.246l-1.311,6.56l-2.623,4.369l-1.312,1.75
		l-17.925-1.311l-12.241,13.552l-2.621,5.684v7.868c0,0,1.746,4.373,3.497,5.684c1.749,1.313,5.245,3.936,7.432,2.623
		c2.187-1.311,9.181-4.371,9.181-4.371l6.994-6.121c0,0,24.046-16.612,24.482-19.674c0.438-3.061,18.362-55.956,18.362-59.017
		c0-3.063,3.061-10.931-2.622-19.237c0,0-30.168-30.602-31.915-40.219c0,0-7.431-9.618,5.684-7.431c0,0,37.598-3.064,57.271-18.8
		c0,0,13.988-3.938,16.612,2.619c0,0,5.683,13.118,3.06,31.916l0.692,6.557l-3.752,1.751v12.678l-2.624,1.748
		c0,0-10.273,4.808-12.24,6.558c-1.968,1.748,0,24.481,0,24.481s5.091,2.528,6.12,1.314c5.465-1.968,26.668-31.478,26.668-31.478
		v-19.672l-2.187-49.402c0,0-7.434-13.77-13.989-15.739c-5.861,0.956-13.55,8.746-21.859,9.182c0,0-26.668,7.433-37.597,1.748
		c0,0-10.493-3.061-17.925-16.614c0,0-2.184-16.174-20.545-25.354h-3.063c0,0-3.058-45.466-59.893-84.813
		c0,0-2.405-3.934-1.749-6.992c0.657-3.061,4.811,0,4.811,0s6.555,8.74,20.109,6.992c0,0,17.707-5.244,25.794-0.875
		c0.875,3.063,10.929,9.62,10.929,9.62s10.709,0.875,14.427-1.748c3.717-2.624,7.433-11.368,7.433-11.368s2.188-10.929-0.875-16.175
		c-3.061-5.246-25.355-15.304-30.165-21.423c0,0-12.679-5.682-17.487-10.929c0,0-9.181-13.552-17.486-17.052l-3.06-2.621
		l-0.438-3.496c0,0,1.312-3.498,7.433,0c0,0-3.497-6.999-12.241-3.936c0,0-4.371-2.186,1.312-7.431c0,0-22.733-3.5-38.473,4.808
		c0,0-10.491-1.749-19.234-7.87c0,0,4.373,11.368,1.311,13.554c0,0-12.345,12.276-15.737,14.427
		c-23.17,14.426-21.859,40.658-44.593,59.456c5.245,3.061,28.852-8.307,26.23-1.748c-5.684-3.063-17.925,29.727-33.226,44.152
		c6.995,3.499,19.236-6.992,19.236-6.992s1.311,7.649-0.438,11.804c-0.777,2.415-32.352,48.527-5.684,71.697
		c-1.312-23.172,6.121-29.729,6.121-29.729s8.989-1.354,9.181,3.498c0.191,4.851,1.748,44.593,1.748,44.593
		s-0.438,7.865,13.116,14.864C784.338,2080.759,788.162,2086.402,785.212,2088.188z"/>
	<path fill="#4FACE1" d="M1348.012,2184.367c0,0,78.621,80.197,94.429,90.498c41.969-30.823,205.909-190.828,60.331-376.41
		c-5.244-13.115-180.991-194.106-382.967,15.739c0,0,248.089-1.071,254.438,0c27.474,6.147,127.874,32.789,126.563,145.578
		C1500.803,2059.772,1494.903,2192.237,1348.012,2184.367z"/>
	<path fill="#1E407C" d="M1387.642,1992.829c20.984-0.056,87.872,89.24-13.116,118.095h-176.984c0,0-56.467-60.333-114.175-118.039"
		/>
	<path fill="#2F9DD8" d="M1348.295,2184.367c0,0,78.621,80.197,94.429,90.498c28.563-20.98,113.627-101.794,119.156-209.787
		c-50.957-70.881-56.204-56.455-80.211-81.933c11.992,19.62,19.788,44.664,19.418,76.627
		C1501.088,2059.772,1495.188,2192.237,1348.295,2184.367z"/>
	<ellipse fill="#020202" cx="1145.009" cy="2438.148" rx="9.18" ry="9.835"/>
	<ellipse fill="#020202" cx="1234.192" cy="2438.148" rx="9.18" ry="9.835"/>
	<ellipse fill="#020202" cx="1321.316" cy="2438.148" rx="9.182" ry="9.835"/>
	<ellipse fill="#020202" cx="1409.937" cy="2438.148" rx="9.181" ry="9.835"/>
	<ellipse fill="#020202" cx="1496.499" cy="2438.148" rx="9.18" ry="9.835"/>
	
		<line fill="none" stroke="#707071" stroke-width="2" stroke-miterlimit="10" x1="1567.759" y1="2438.148" x2="2078.816" y2="2438.148"/>
	
		<line fill="none" stroke="#707071" stroke-width="2" stroke-miterlimit="10" x1="559.458" y1="2438.148" x2="1077.513" y2="2438.148"/>
	
		<line fill="none" stroke="#707071" stroke-width="2" stroke-miterlimit="10" x1="553.508" y1="2642.092" x2="2085.375" y2="2642.092"/>
	
		<text transform="matrix(1 0 0 1 627.0244 2601.4033)" fill="#838383" font-family="'GoodTimesRg-Regular'" font-size="158.4691" letter-spacing="26">REDYRIDER</text>
</g>
</svg>
