<?xml version="1.0" encoding="utf-8"?>
<!-- Generator: Adobe Illustrator 15.0.0, SVG Export Plug-In . SVG Version: 6.00 Build 0)  -->
<!DOCTYPE svg PUBLIC "-//W3C//DTD SVG 1.1//EN" "http://www.w3.org/Graphics/SVG/1.1/DTD/svg11.dtd" [
	<!ENTITY ns_flows "http://ns.adobe.com/Flows/1.0/">
	<!ENTITY ns_extend "http://ns.adobe.com/Extensibility/1.0/">
	<!ENTITY ns_ai "http://ns.adobe.com/AdobeIllustrator/10.0/">
	<!ENTITY ns_graphs "http://ns.adobe.com/Graphs/1.0/">
]>
<svg version="1.1" id="Layer_1" xmlns:x="&ns_extend;" xmlns:i="&ns_ai;" xmlns:graph="&ns_graphs;"
	 xmlns="http://www.w3.org/2000/svg" xmlns:xlink="http://www.w3.org/1999/xlink" xmlns:a="http://ns.adobe.com/AdobeSVGViewerExtensions/3.0/"
	 x="0px" y="0px" width="422.362px" height="506.885px" viewBox="0 0 422.362 506.885" enable-background="new 0 0 422.362 506.885"
	 xml:space="preserve">
<g>
	<path fill="#636466" d="M273.002,154.018c8.772-2.193,69.442,73.098-15.351,98.684c0,0-133.283,0-147.965,0
		c-14.678,0-7.735,10.051-7.735,10.051l171.051,171.963l-63.596,63.597C69.056,326.165-16.47,331.647,14.232,154.018"/>
	<path fill="#C7C8CA" d="M234.146,314.103c0,0,65.729,67.048,78.946,75.657C348.18,363.992,485.24,230.221,363.53,75.069
		c-4.386-10.965-151.314-162.28-320.173,13.158c0,0,207.411-0.895,212.718,0c22.971,5.14,106.907,27.412,105.811,121.709
		C361.886,209.936,356.951,320.681,234.146,314.103z"/>
	<path fill="#939598" d="M234.386,314.103c0,0,65.729,67.048,78.946,75.657c23.879-17.535,94.996-85.102,99.617-175.386
		c-42.6-59.262-46.986-47.2-67.057-68.5c10.022,16.405,16.541,37.341,16.233,64.063
		C362.126,209.936,357.191,320.681,234.386,314.103z"/>
</g>
</svg>
