<?xml version="1.0" encoding="utf-8"?>
<!-- Generator: Adobe Illustrator 15.0.0, SVG Export Plug-In . SVG Version: 6.00 Build 0)  -->
<!DOCTYPE svg PUBLIC "-//W3C//DTD SVG 1.1//EN" "http://www.w3.org/Graphics/SVG/1.1/DTD/svg11.dtd">
<svg version="1.1" id="Layer_1" xmlns="http://www.w3.org/2000/svg" xmlns:xlink="http://www.w3.org/1999/xlink" x="0px" y="0px"
	 width="590.843px" height="650.849px" viewBox="0 0 590.843 650.849" enable-background="new 0 0 590.843 650.849"
	 xml:space="preserve">
<g>
	<path fill="#808285" d="M500.78,231.584c0,0-88.495-44.998-86.995-158.992c0,0,16.498-61.497,85.495-67.497
		c0,0,68.997,6,80.996,65.997C580.276,71.092,602.775,168.587,500.78,231.584z"/>
	<path fill="#808285" d="M94.3,521.57c0,0-88.496-44.998-86.996-158.992c0,0,16.499-61.498,85.496-67.497
		c0,0,68.997,5.999,80.996,65.997C173.796,361.078,196.295,458.572,94.3,521.57z"/>
	<circle fill="#FFFFFF" cx="92.801" cy="390.576" r="47.997"/>
	<circle fill="#808285" cx="107.301" cy="599.064" r="47.997"/>
	<circle fill="#808285" cx="493.28" cy="308.08" r="47.997"/>
	<circle fill="none" cx="494.78" cy="308.08" r="47.997"/>
	<circle fill="#FFFFFF" cx="499.28" cy="98.091" r="47.997"/>
	<path fill="#808285" d="M449.783,326.079H338.789c-44.998,19.5-44.999,50.998-44.999,50.998c0,49.498,47.998,61.496,47.998,61.496
		s60.675,0.424,137.993,0c66.016,6.424,70.496,83.996,70.496,83.996c0.852,68.428-33.148,95.762-68.996,95.996
		c-142.422,1.098-332.983,0-332.983,0v-34.498l334.483,1c40.498-19.5,34.498-56.498,34.498-56.498
		c1.5-40.498-41.998-56.996-41.998-56.996l-142.492-1.5c-67.497-15-70.497-88.496-70.497-88.496
		c1.5-68.998,70.497-88.496,70.497-88.496l116.994,0.5"/>
</g>
</svg>
