<?xml version="1.0" encoding="utf-8"?>
<!-- Generator: Adobe Illustrator 15.0.0, SVG Export Plug-In . SVG Version: 6.00 Build 0)  -->
<!DOCTYPE svg PUBLIC "-//W3C//DTD SVG 1.1//EN" "http://www.w3.org/Graphics/SVG/1.1/DTD/svg11.dtd" [
	<!ENTITY ns_flows "http://ns.adobe.com/Flows/1.0/">
	<!ENTITY ns_extend "http://ns.adobe.com/Extensibility/1.0/">
	<!ENTITY ns_ai "http://ns.adobe.com/AdobeIllustrator/10.0/">
	<!ENTITY ns_graphs "http://ns.adobe.com/Graphs/1.0/">
]>
<svg version="1.1" id="Layer_1" xmlns:x="&ns_extend;" xmlns:i="&ns_ai;" xmlns:graph="&ns_graphs;"
	 xmlns="http://www.w3.org/2000/svg" xmlns:xlink="http://www.w3.org/1999/xlink" xmlns:a="http://ns.adobe.com/AdobeSVGViewerExtensions/3.0/"
	 x="0px" y="0px" width="327.616px" height="331.058px" viewBox="0 0 327.616 331.058" enable-background="new 0 0 327.616 331.058"
	 xml:space="preserve">
<g>
	<ellipse fill="#7D7D7D" cx="164.845" cy="166.392" rx="162.771" ry="164.666"/>
	<path fill="#F2F2F2" d="M111.116,96.517c0,0-11.5-48.5,47-60.5c0,0,32.5-8,54.5,22c0,0,9,11,8.5,38.5c0,0,14.5,12-3.5,34.5
		c0,0-13.75,45-48,48.554c0,0-33.75,3.946-54-46.054C115.616,133.517,97.616,112.017,111.116,96.517z"/>
	<path fill="#F2F2F2" d="M128.616,183.571l25,53.446l5.5-18l-5.5-15c0,0-3-5,5.5-8l15.5,0.5c0,0,6,1.75,4,7c0,0-2,10.5-5.5,14.5
		l6.675,19l23.825-53.446c0,0,3.75,11.946,44,19.946c0,0,20.75,2.5,25.75,14.5c0,0,6.5,8,7.5,38c0,0-37,55.25-112.25,56.25
		c0,0-66,7.5-117.25-55.5c0,0-0.25-19.5,3.5-29c0,0,2-17.25,20.25-22.25C75.116,205.517,116.866,203.125,128.616,183.571z"/>
</g>
</svg>
