<?xml version="1.0" encoding="utf-8"?>
<!-- Generator: Adobe Illustrator 15.0.0, SVG Export Plug-In . SVG Version: 6.00 Build 0)  -->
<!DOCTYPE svg PUBLIC "-//W3C//DTD SVG 1.1//EN" "http://www.w3.org/Graphics/SVG/1.1/DTD/svg11.dtd" [
	<!ENTITY ns_flows "http://ns.adobe.com/Flows/1.0/">
	<!ENTITY ns_extend "http://ns.adobe.com/Extensibility/1.0/">
	<!ENTITY ns_ai "http://ns.adobe.com/AdobeIllustrator/10.0/">
	<!ENTITY ns_graphs "http://ns.adobe.com/Graphs/1.0/">
]>
<svg version="1.1" id="Layer_1" xmlns:x="&ns_extend;" xmlns:i="&ns_ai;" xmlns:graph="&ns_graphs;"
	 xmlns="http://www.w3.org/2000/svg" xmlns:xlink="http://www.w3.org/1999/xlink" xmlns:a="http://ns.adobe.com/AdobeSVGViewerExtensions/3.0/"
	 x="0px" y="0px" width="288px" height="288px" viewBox="0 0 288 288" enable-background="new 0 0 288 288" xml:space="preserve">
<g>
	<path fill="#2DB34A" d="M286.297,256.496c0,16.141-13.087,29.228-29.229,29.228H31.947c-16.141,0-29.228-13.087-29.228-29.228
		V31.376c0-16.144,13.087-29.229,29.228-29.229h225.121c16.142,0,29.229,13.086,29.229,29.229V256.496z"/>
	<path fill="#FFFFFF" d="M240.404,137.466c0,52.636-42.672,95.308-95.311,95.308c-14.891,0-23.525-0.992-36.081-7.081
		c-6.784-3.29-46.439,16.298-52.208,11.564c-7.143-5.863,11.542-43.426,6.356-51.104c-10.277-15.211-13.376-28.949-13.376-48.687
		c0-52.639,42.672-95.311,95.309-95.311C197.732,42.156,240.404,84.828,240.404,137.466z"/>
	<path fill="#35B44A" d="M226.729,136.967c0,44.482-36.062,80.539-80.542,80.539c-12.583,0-24.492-2.885-35.102-8.032
		c-5.732-2.778-34.628,15.819-39.503,11.821c-6.037-4.957,12.206-32.813,7.823-39.299c-8.685-12.856-13.757-28.351-13.757-45.029
		c0-44.482,36.061-80.542,80.539-80.542C190.668,56.425,226.729,92.484,226.729,136.967z"/>
	<path fill="#FFFFFF" d="M107.633,83.443c-19.373,9.686-12.325,33.458-12.325,33.458c35.22,73.075,84.522,64.272,84.522,64.272
		c16.73-1.763,18.491-24.651,18.491-24.651l-19.372-9.687c-4.405-3.52-11.445,0.881-11.445,0.881l-8.806,8.806
		c-16.726,0-37.86-32.183-37.86-32.183c-4.402-4.011,3.963-9.198,3.963-9.198c6.603,0,3.961-10.566,3.961-10.566l-7.924-21.131"/>
</g>
</svg>
